<svg width="179" height="226" viewBox="0 0 179 226" fill="none" xmlns="http://www.w3.org/2000/svg">
<path d="M3.8913 59.428C3.8913 47.2821 4.54719 37.7874 6.20221 30.3405C7.84741 22.9377 10.4277 17.7992 14.1135 14.1135C17.7992 10.4277 22.9377 7.84741 30.3405 6.20221C37.7874 4.54719 47.2821 3.8913 59.428 3.8913H119.572C131.718 3.8913 141.213 4.54719 148.66 6.20221C156.062 7.84741 161.201 10.4277 164.887 14.1135C168.572 17.7992 171.153 22.9377 172.798 30.3405C174.453 37.7874 175.109 47.2821 175.109 59.428V119.572C175.109 131.718 174.453 141.213 172.798 148.66C171.153 156.062 168.572 161.201 164.887 164.887C161.201 168.572 156.062 171.153 148.66 172.798C141.213 174.453 131.718 175.109 119.572 175.109H59.428C47.2821 175.109 37.7874 174.453 30.3405 172.798C22.9377 171.153 17.7992 168.572 14.1135 164.887C10.4277 161.201 7.84741 156.062 6.20221 148.66C4.54719 141.213 3.8913 131.718 3.8913 119.572V59.428Z" fill="#245692" stroke="#245692" stroke-width="7.78261"/>
<mask id="mask0_782_5508" style="mask-type:alpha" maskUnits="userSpaceOnUse" x="0" y="0" width="179" height="179">
<path d="M3.8913 65.4424C3.8913 52.0583 4.61354 41.5686 6.44546 33.3256C8.26757 25.1269 11.1354 19.3913 15.2633 15.2633C19.3913 11.1354 25.1269 8.26757 33.3256 6.44546C41.5686 4.61354 52.0583 3.8913 65.4424 3.8913H113.558C126.942 3.8913 137.431 4.61354 145.674 6.44546C153.873 8.26757 159.609 11.1354 163.737 15.2633C167.865 19.3913 170.732 25.1269 172.555 33.3256C174.386 41.5686 175.109 52.0583 175.109 65.4424V113.558C175.109 126.942 174.386 137.431 172.555 145.674C170.732 153.873 167.865 159.609 163.737 163.737C159.609 167.865 153.873 170.732 145.674 172.555C137.431 174.386 126.942 175.109 113.558 175.109H65.4424C52.0583 175.109 41.5686 174.386 33.3256 172.555C25.1269 170.732 19.3913 167.865 15.2633 163.737C11.1354 159.609 8.26757 153.873 6.44546 145.674C4.61354 137.431 3.8913 126.942 3.8913 113.558V65.4424Z" fill="#245692" stroke="#245692" stroke-width="7.78261"/>
</mask>
<g mask="url(#mask0_782_5508)">
<path d="M24.9043 146.797V109.813H33.9519V137.765H85.3116C82.479 115.029 58.4995 97.2172 29.4275 97.2172H24.9055V31.1304H29.4275C56.9848 31.1304 80.5858 45.3858 90.1184 65.4698C99.6523 45.3858 123.253 31.1304 150.811 31.1304H155.331V97.2172H150.811C121.739 97.2172 97.7567 115.029 94.9252 137.765H146.288V109.813H155.333V146.797H24.9043ZM94.6394 85.2264V114.819C105.279 99.9082 124.303 89.5699 146.287 88.3108V40.3026C117.42 42.1605 94.6394 61.5982 94.6394 85.2264ZM33.9565 88.3154C55.9374 89.5697 74.965 99.9045 85.601 114.823V85.231C85.601 61.6017 62.8199 42.1638 33.9565 40.3118V88.3154Z" fill="white"/>
</g>
<g clip-path="url(#clip0_782_5508)">
<path d="M144.234 213.907C144.234 206.875 149.305 201.813 155.746 201.813C157.133 201.763 158.513 202.042 159.77 202.629C161.028 203.216 162.128 204.093 162.979 205.188V202.405H168V225.392H162.979V222.632C162.128 223.725 161.027 224.6 159.769 225.185C158.511 225.769 157.132 226.046 155.746 225.992C149.305 226.001 144.234 220.936 144.234 213.907ZM149.4 213.907C149.4 217.939 152.02 221.274 156.347 221.274C157.298 221.282 158.24 221.093 159.116 220.72C159.991 220.347 160.78 219.798 161.432 219.106C162.084 218.415 162.586 217.595 162.906 216.7C163.227 215.806 163.359 214.855 163.293 213.907C163.359 212.959 163.227 212.008 162.906 211.114C162.586 210.219 162.084 209.399 161.432 208.707C160.78 208.016 159.991 207.467 159.116 207.094C158.24 206.721 157.298 206.532 156.347 206.54C152.021 206.54 149.4 209.875 149.4 213.907ZM91.9848 213.907C91.9848 206.875 97.0552 201.813 103.496 201.813C104.884 201.762 106.264 202.041 107.522 202.628C108.781 203.215 109.881 204.092 110.733 205.188V202.405H115.753V225.392H110.733V222.632C109.881 223.726 108.781 224.602 107.522 225.186C106.264 225.771 104.883 226.047 103.496 225.992C97.0566 226.001 91.9848 220.936 91.9848 213.907ZM97.1539 213.907C97.1539 217.939 99.7732 221.274 104.1 221.274C105.051 221.281 105.994 221.092 106.869 220.719C107.744 220.346 108.532 219.797 109.184 219.105C109.836 218.413 110.337 217.595 110.657 216.7C110.977 215.806 111.109 214.855 111.044 213.907C111.109 212.959 110.977 212.008 110.657 211.114C110.337 210.219 109.836 209.401 109.184 208.709C108.532 208.017 107.744 207.468 106.869 207.095C105.994 206.722 105.051 206.532 104.1 206.54C99.7732 206.54 97.1539 209.875 97.1539 213.907ZM40.9211 213.907C40.9211 206.875 45.9915 201.813 52.4326 201.813C53.8207 201.763 55.2008 202.043 56.4586 202.632C57.7164 203.22 58.8153 204.1 59.6649 205.197V190.854H64.6895V225.402H59.6649V222.641C58.8134 223.735 57.7136 224.61 56.4559 225.195C55.1981 225.779 53.8188 226.056 52.4326 226.002C45.9929 226.001 40.9211 220.94 40.9211 213.907ZM46.0874 213.907C46.0874 217.939 48.7053 221.274 53.0323 221.274C53.9839 221.282 54.9272 221.093 55.8025 220.72C56.6778 220.347 57.4665 219.798 58.1188 219.106C58.7712 218.415 59.2732 217.595 59.5934 216.7C59.9135 215.806 60.0442 214.855 59.9785 213.907C60.0442 212.959 59.9135 212.008 59.5934 211.114C59.2732 210.219 58.7712 209.399 58.1188 208.707C57.4665 208.016 56.6778 207.467 55.8025 207.094C54.9272 206.721 53.9839 206.532 53.0323 206.54C48.7068 206.54 46.0874 209.879 46.0874 213.907ZM120.563 223.025L122.895 219.256C125.069 220.911 127.759 221.743 130.489 221.607C133.926 221.607 135.728 220.528 135.728 218.804C135.728 217.506 134.479 216.642 131.741 216.26L129.335 215.948C124.242 215.245 121.528 212.899 121.528 209.198C121.528 204.643 125.181 201.834 131.042 201.834C134.316 201.754 137.547 202.593 140.366 204.256L138.205 208.169C136.037 206.925 133.589 206.247 131.089 206.2C128.353 206.2 126.741 207.304 126.741 208.934C126.741 210.564 128.421 210.999 130.544 211.31L132.919 211.67C137.943 212.39 140.925 214.525 140.925 218.46C140.925 222.877 137.079 225.972 130.446 225.972C126.925 226.039 123.471 225.009 120.563 223.025ZM84.6562 225.399L76.9906 215.707H74.4927V225.399H69.446V190.851H74.4927V211.151H77.0139L84.6108 202.413H90.9312L81.2931 213.242L91.0233 225.406L84.6562 225.399ZM13 225.399V191.808H37.2265V196.894H18.4346V205.939H36.58V211.028H18.4346V220.31H37.5387V225.395L13 225.399ZM13 154.457V110.506H23.7522V143.723H84.7882C81.4219 116.704 52.9246 95.5367 18.3754 95.5367H13.0014V16.999H18.3754C51.1245 16.999 79.172 33.9402 90.5006 57.8081C101.831 33.9402 129.878 16.999 162.627 16.999H168V95.5367H162.627C128.078 95.5367 99.5779 116.704 96.213 143.723H157.253V110.506H168.001V154.457H13ZM95.8733 81.2868V116.454C108.517 98.7347 131.125 86.4486 157.252 84.9523V27.8993C122.946 30.1072 95.8733 53.2071 95.8733 81.2868ZM23.7577 84.9578C49.8798 86.4485 72.4922 98.7303 85.1321 116.46V81.2923C85.1321 53.2112 58.059 30.1111 23.7577 27.9103V84.9578Z" fill="black"/>
</g>
<defs>
<clipPath id="clip0_782_5508">
<rect width="155" height="36" fill="white" transform="translate(13 190)"/>
</clipPath>
</defs>
</svg>
